<svg height="17" width="18" xmlns="http://www.w3.org/2000/svg"><path d="M8.711 0A8.711 8.711 0 0 0 0 8.711c0 3.85 2.5 7.117 5.958 8.276.436.07.575-.2.575-.436v-1.472c-2.413.522-2.927-1.167-2.927-1.167-.4-1.011-.967-1.281-.967-1.281-.792-.54.061-.523.061-.523.872.061 1.333.898 1.333.898.758 1.324 2.039.932 2.535.723.079-.567.305-.95.549-1.168-1.934-.217-3.964-.967-3.964-4.286 0-.966.331-1.742.898-2.36-.087-.218-.392-1.124.087-2.3 0 0 .731-.235 2.395.889a8.208 8.208 0 0 1 2.178-.288c.74 0 1.49.096 2.178.288 1.664-1.124 2.395-.889 2.395-.889.48 1.176.175 2.082.087 2.3.567.618.898 1.394.898 2.36 0 3.328-2.039 4.06-3.981 4.278.313.27.6.801.6 1.611v2.387c0 .235.14.514.584.436 3.459-1.168 5.95-4.426 5.95-8.276A8.711 8.711 0 0 0 8.711 0z" fill="#9ea0a6"/></svg>