<?xml version="1.0" encoding="UTF-8" standalone="no"?>
<!DOCTYPE svg PUBLIC "-//W3C//DTD SVG 1.1//EN" "http://www.w3.org/Graphics/SVG/1.1/DTD/svg11.dtd">
<svg width="100%" height="100%" viewBox="0 0 43 16" version="1.1" xmlns="http://www.w3.org/2000/svg" xmlns:xlink="http://www.w3.org/1999/xlink" xml:space="preserve" xmlns:serif="http://www.serif.com/" style="fill-rule:evenodd;clip-rule:evenodd;stroke-linejoin:round;stroke-miterlimit:2;">
    <g transform="matrix(1.22517,0,0,1.15751,-2.64071,-3.32043)">
        <g transform="matrix(13.652,0,0,13.652,0.924895,12.9289)">
            <path d="M0.649,-0.71L0.649,0L0.58,0L0.58,-0.332L0.159,-0.332L0.159,0L0.089,0L0.089,-0.71L0.159,-0.71L0.159,-0.394L0.58,-0.394L0.58,-0.71L0.649,-0.71Z" style="fill-rule:nonzero;"/>
        </g>
        <g transform="matrix(13.652,0,0,13.652,10.9318,12.9289)">
            <path d="M0.206,0.01C0.181,0.01 0.159,0.006 0.138,-0.003C0.117,-0.011 0.098,-0.022 0.083,-0.037C0.067,-0.052 0.055,-0.069 0.046,-0.089C0.037,-0.108 0.033,-0.129 0.033,-0.152C0.033,-0.175 0.038,-0.196 0.049,-0.215C0.06,-0.234 0.075,-0.251 0.094,-0.265C0.113,-0.279 0.136,-0.29 0.163,-0.298C0.19,-0.305 0.219,-0.309 0.251,-0.309C0.278,-0.309 0.305,-0.307 0.332,-0.302C0.359,-0.297 0.384,-0.291 0.405,-0.282L0.405,-0.329C0.405,-0.375 0.392,-0.412 0.366,-0.439C0.34,-0.466 0.304,-0.479 0.258,-0.479C0.231,-0.479 0.204,-0.474 0.176,-0.463C0.148,-0.452 0.12,-0.437 0.091,-0.417L0.067,-0.462C0.134,-0.507 0.2,-0.53 0.263,-0.53C0.328,-0.53 0.38,-0.512 0.417,-0.475C0.454,-0.438 0.473,-0.388 0.473,-0.323L0.473,-0.088C0.473,-0.069 0.481,-0.06 0.498,-0.06L0.498,0C0.487,0.002 0.478,0.003 0.472,0.003C0.455,0.003 0.441,-0.001 0.432,-0.01C0.422,-0.019 0.417,-0.031 0.416,-0.046L0.414,-0.087C0.39,-0.056 0.36,-0.032 0.324,-0.015C0.287,0.002 0.248,0.01 0.206,0.01ZM0.222,-0.042C0.257,-0.042 0.29,-0.049 0.32,-0.062C0.349,-0.075 0.372,-0.093 0.387,-0.115C0.393,-0.121 0.398,-0.128 0.401,-0.135C0.404,-0.141 0.405,-0.148 0.405,-0.154L0.405,-0.239C0.382,-0.248 0.359,-0.254 0.335,-0.259C0.31,-0.264 0.285,-0.266 0.26,-0.266C0.212,-0.266 0.173,-0.256 0.143,-0.236C0.113,-0.216 0.098,-0.19 0.098,-0.157C0.098,-0.141 0.101,-0.126 0.108,-0.112C0.114,-0.098 0.123,-0.086 0.134,-0.076C0.145,-0.065 0.158,-0.057 0.173,-0.051C0.188,-0.045 0.205,-0.042 0.222,-0.042Z" style="fill-rule:nonzero;"/>
        </g>
        <g transform="matrix(13.652,0,0,13.652,18.3721,12.9289)">
            <path d="M0.341,0.01C0.297,0.01 0.258,-0.001 0.225,-0.024C0.191,-0.046 0.164,-0.074 0.143,-0.108L0.143,0.213L0.075,0.213L0.075,-0.521L0.136,-0.521L0.136,-0.42C0.157,-0.453 0.185,-0.479 0.219,-0.5C0.253,-0.52 0.29,-0.53 0.33,-0.53C0.366,-0.53 0.399,-0.523 0.429,-0.508C0.459,-0.493 0.485,-0.472 0.507,-0.448C0.529,-0.423 0.546,-0.394 0.559,-0.361C0.571,-0.328 0.577,-0.295 0.577,-0.26C0.577,-0.223 0.571,-0.189 0.56,-0.156C0.549,-0.123 0.533,-0.095 0.512,-0.07C0.491,-0.045 0.466,-0.026 0.437,-0.012C0.408,0.003 0.376,0.01 0.341,0.01ZM0.322,-0.05C0.35,-0.05 0.376,-0.056 0.399,-0.068C0.422,-0.08 0.441,-0.096 0.458,-0.116C0.474,-0.135 0.486,-0.158 0.495,-0.183C0.504,-0.208 0.508,-0.233 0.508,-0.26C0.508,-0.288 0.503,-0.315 0.493,-0.34C0.483,-0.365 0.469,-0.388 0.452,-0.407C0.435,-0.426 0.414,-0.442 0.391,-0.453C0.367,-0.464 0.341,-0.47 0.314,-0.47C0.297,-0.47 0.279,-0.467 0.26,-0.46C0.241,-0.452 0.223,-0.443 0.207,-0.432C0.19,-0.42 0.176,-0.406 0.165,-0.391C0.153,-0.375 0.146,-0.358 0.143,-0.341L0.143,-0.181C0.151,-0.162 0.161,-0.145 0.174,-0.129C0.186,-0.113 0.2,-0.099 0.216,-0.088C0.231,-0.076 0.248,-0.067 0.266,-0.06C0.284,-0.053 0.303,-0.05 0.322,-0.05Z" style="fill-rule:nonzero;"/>
        </g>
        <g transform="matrix(13.652,0,0,13.652,26.7954,12.9289)">
            <path d="M0.341,0.01C0.297,0.01 0.258,-0.001 0.225,-0.024C0.191,-0.046 0.164,-0.074 0.143,-0.108L0.143,0.213L0.075,0.213L0.075,-0.521L0.136,-0.521L0.136,-0.42C0.157,-0.453 0.185,-0.479 0.219,-0.5C0.253,-0.52 0.29,-0.53 0.33,-0.53C0.366,-0.53 0.399,-0.523 0.429,-0.508C0.459,-0.493 0.485,-0.472 0.507,-0.448C0.529,-0.423 0.546,-0.394 0.559,-0.361C0.571,-0.328 0.577,-0.295 0.577,-0.26C0.577,-0.223 0.571,-0.189 0.56,-0.156C0.549,-0.123 0.533,-0.095 0.512,-0.07C0.491,-0.045 0.466,-0.026 0.437,-0.012C0.408,0.003 0.376,0.01 0.341,0.01ZM0.322,-0.05C0.35,-0.05 0.376,-0.056 0.399,-0.068C0.422,-0.08 0.441,-0.096 0.458,-0.116C0.474,-0.135 0.486,-0.158 0.495,-0.183C0.504,-0.208 0.508,-0.233 0.508,-0.26C0.508,-0.288 0.503,-0.315 0.493,-0.34C0.483,-0.365 0.469,-0.388 0.452,-0.407C0.435,-0.426 0.414,-0.442 0.391,-0.453C0.367,-0.464 0.341,-0.47 0.314,-0.47C0.297,-0.47 0.279,-0.467 0.26,-0.46C0.241,-0.452 0.223,-0.443 0.207,-0.432C0.19,-0.42 0.176,-0.406 0.165,-0.391C0.153,-0.375 0.146,-0.358 0.143,-0.341L0.143,-0.181C0.151,-0.162 0.161,-0.145 0.174,-0.129C0.186,-0.113 0.2,-0.099 0.216,-0.088C0.231,-0.076 0.248,-0.067 0.266,-0.06C0.284,-0.053 0.303,-0.05 0.322,-0.05Z" style="fill-rule:nonzero;"/>
        </g>
        <g transform="matrix(13.652,0,0,13.652,35.2186,12.9289)">
            <path d="M0.075,0L0.075,-0.521L0.143,-0.521L0.143,0L0.075,0ZM0.075,-0.63L0.075,-0.73L0.143,-0.73L0.143,-0.63L0.075,-0.63Z" style="fill-rule:nonzero;"/>
        </g>
    </g>
</svg>
