<svg clip-rule="evenodd" fill-rule="evenodd" stroke-linejoin="round" stroke-miterlimit="2" viewBox="0 0 43 16" xmlns="http://www.w3.org/2000/svg"><g fill-rule="nonzero"><path d="m.649-.71v.71h-.069v-.332h-.421v.332h-.07v-.71h.07v.316h.421v-.316z" transform="matrix(16.72602084 0 0 15.80232652 -1.50755639285 11.644901039)"/><path d="m.206.01c-.025 0-.047-.004-.068-.013-.021-.008-.04-.019-.055-.034-.016-.015-.028-.032-.037-.052-.009-.019-.013-.04-.013-.063s.005-.044.016-.063.026-.036.045-.05.042-.025.069-.033c.027-.007.056-.011.088-.011.027 0 .054.002.081.007s.052.011.073.02v-.047c0-.046-.013-.083-.039-.11s-.062-.04-.108-.04c-.027 0-.054.005-.082.016s-.056.026-.085.046l-.024-.045c.067-.045.133-.068.196-.068.065 0 .117.018.154.055s.056.087.056.152v.235c0 .019.008.028.025.028v.06c-.011.002-.02.003-.026.003-.017 0-.031-.004-.04-.013-.01-.009-.015-.021-.016-.036l-.002-.041c-.024.031-.054.055-.09.072-.037.017-.076.025-.118.025zm.016-.052c.035 0 .068-.007.098-.02.029-.013.052-.031.067-.053.006-.006.011-.013.014-.02.003-.006.004-.013.004-.019v-.085c-.023-.009-.046-.015-.07-.02-.025-.005-.05-.007-.075-.007-.048 0-.087.01-.117.03s-.045.046-.045.079c0 .016.003.031.01.045.006.014.015.026.026.036.011.011.024.019.039.025s.032.009.049.009z" transform="matrix(16.72602084 0 0 15.80232652 10.752603406 11.644901039)"/><path d="m.341.01c-.044 0-.083-.011-.116-.034-.034-.022-.061-.05-.082-.084v.321h-.068v-.734h.061v.101c.021-.033.049-.059.083-.08.034-.02.071-.03.111-.03.036 0 .069.007.099.022s.056.036.078.06c.022.025.039.054.052.087.012.033.018.066.018.101 0 .037-.006.071-.017.104s-.027.061-.048.086-.046.044-.075.058c-.029.015-.061.022-.096.022zm-.019-.06c.028 0 .054-.006.077-.018s.042-.028.059-.048c.016-.019.028-.042.037-.067s.013-.05.013-.077c0-.028-.005-.055-.015-.08s-.024-.048-.041-.067-.038-.035-.061-.046c-.024-.011-.05-.017-.077-.017-.017 0-.035.003-.054.01-.019.008-.037.017-.053.028-.017.012-.031.026-.042.041-.012.016-.019.033-.022.05v.16c.008.019.018.036.031.052.012.016.026.03.042.041.015.012.032.021.05.028s.037.01.056.01z" transform="matrix(16.72602084 0 0 15.80232652 19.868235757 11.644901039)"/><path d="m.341.01c-.044 0-.083-.011-.116-.034-.034-.022-.061-.05-.082-.084v.321h-.068v-.734h.061v.101c.021-.033.049-.059.083-.08.034-.02.071-.03.111-.03.036 0 .069.007.099.022s.056.036.078.06c.022.025.039.054.052.087.012.033.018.066.018.101 0 .037-.006.071-.017.104s-.027.061-.048.086-.046.044-.075.058c-.029.015-.061.022-.096.022zm-.019-.06c.028 0 .054-.006.077-.018s.042-.028.059-.048c.016-.019.028-.042.037-.067s.013-.05.013-.077c0-.028-.005-.055-.015-.08s-.024-.048-.041-.067-.038-.035-.061-.046c-.024-.011-.05-.017-.077-.017-.017 0-.035.003-.054.01-.019.008-.037.017-.053.028-.017.012-.031.026-.042.041-.012.016-.019.033-.022.05v.16c.008.019.018.036.031.052.012.016.026.03.042.041.015.012.032.021.05.028s.037.01.056.01z" transform="matrix(16.72602084 0 0 15.80232652 30.188210218 11.644901039)"/><path d="m.075 0v-.521h.068v.521zm0-.63v-.1h.068v.1z" transform="matrix(16.72602084 0 0 15.80232652 40.508062162 11.644901039)"/></g></svg>