<svg height="20" width="157" xmlns="http://www.w3.org/2000/svg"><g fill="none"><path d="m71.883 13.855c.234 1.773 1.572 2.683 3.62 2.683 1.476 0 2.683-.504 2.683-1.58 0-1.075-.69-1.44-2.145-1.675l-2.351-.4c-3.152-.504-4.897-1.683-4.897-4.428s2.38-4.765 6.138-4.765c4.09 0 6.545 1.841 6.807 5.13l-3.317.139c-.27-1.683-1.38-2.518-3.524-2.518-1.442 0-2.38.635-2.38 1.642 0 .807.538 1.276 1.607 1.441l2.82.47c3.118.503 4.966 1.813 4.966 4.6 0 3.013-2.62 4.696-6.441 4.696-3.82 0-6.807-1.683-7.076-5.304l3.49-.13zm12.007-6.958h-2.118v-2.367l.987-.172c1.441-.235 1.848-.973 2.179-2.345l.49-2.013h2.448v4.09h4.027v2.807h-4.027v7.31c0 1.276.572 1.848 1.78 1.848a6.207 6.207 0 0 0 2.516-.69v2.649a6.38 6.38 0 0 1 -4.09 1.296c-2.282 0-4.192-1.007-4.192-4.138zm22.8 8.4v3.903a1.766 1.766 0 0 1 -.497 0 3.02 3.02 0 0 1 -3.117-2.586c-.842 1.71-2.855 2.62-5.035 2.62-3.082 0-4.965-1.544-4.965-4.096 0-2.814 2.283-3.986 5.634-4.662l4.049-.78v-.336c0-1.642-.876-2.649-2.587-2.649a2.828 2.828 0 0 0 -2.93 2.449l-3.656-.338c.504-3.021 2.82-5.131 6.745-5.131 3.924 0 6.359 1.827 6.359 5.703v5.904zm-3.931-3.187-2.759.6c-1.745.373-2.986.69-2.986 2.152 0 1 .772 1.607 2.069 1.607 2.11 0 3.724-1.607 3.724-3.993zm15.22-4.062a4.497 4.497 0 0 0 -2.413-.634c-2.07 0-3.49 1.476-3.49 4.138v7.31h-4.028v-14.772h4.028v2.807a4.483 4.483 0 0 1 4.138-3.221 3.241 3.241 0 0 1 2.069.607zm3.51-1.151h-2.117v-2.367l1.007-.172c1.442-.235 1.849-.973 2.18-2.345l.469-2.013h2.448v4.09h4.027v2.807h-4.027v7.31c0 1.276.572 1.848 1.78 1.848a6.207 6.207 0 0 0 2.516-.69v2.649a6.38 6.38 0 0 1 -4.09 1.296c-2.282 0-4.192-1.007-4.192-4.138v-8.275zm34.656 1.151a4.497 4.497 0 0 0 -2.414-.634c-2.069 0-3.49 1.476-3.49 4.138v7.31h-4.034v-14.772h4.027v2.807a4.476 4.476 0 0 1 4.138-3.221 3.269 3.269 0 0 1 2.07.607z" fill="#c7c7c7"/><path d="m36.29 15.38h-4.028v-14.78h4.028v2.414a5.152 5.152 0 0 1 4.827-2.82c3.952 0 5.393 2.682 5.393 5.972v9.213h-4.02v-8.413c0-2.276-.904-3.587-2.883-3.587-1.98 0-3.317 1.614-3.317 4.09v7.91zm19.482.406c-4.558 0-7.779-3.186-7.779-7.78 0-4.592 3.22-7.813 7.78-7.813 4.558 0 7.806 3.255 7.806 7.814s-3.213 7.78-7.807 7.78zm0-3.055c2.476 0 3.752-1.945 3.752-4.724 0-2.78-1.276-4.759-3.752-4.759-2.475 0-3.724 1.945-3.724 4.759s1.276 4.724 3.724 4.724zm-45.544-12.131h4.02v14.78h-4.02v-2.414a5.159 5.159 0 0 1 -4.828 2.82c-3.959 0-5.4-2.683-5.4-5.972v-9.214h4.02v8.414c0 2.276.911 3.586 2.883 3.586 1.973 0 3.325-1.607 3.325-4.09zm16.751 10.58a3.545 3.545 0 0 1 -3.269 1.551 3.91 3.91 0 0 1 -4.027-3.717h11.096v-1.428c0-4.034-2.503-7.393-7.33-7.393-4.428 0-7.746 3.359-7.746 8.014s3.283 7.586 7.842 7.586c2.89 0 5.062-1.138 6.269-3.13l-2.835-1.484zm-3.53-8.035c2.24 0 3.282 1.641 3.448 3.352h-7.145c.372-1.842 1.476-3.352 3.696-3.352zm42.317 12.558a2.02 2.02 0 0 1 -2.021-2.02v-.083a2.02 2.02 0 0 1 4.041 0v.083a2.02 2.02 0 0 1 -2.02 2.02z" fill="#000" transform="translate(0 3.448)"/><path d="m141.317 14.669c-.655 1.041-1.71 1.559-3.262 1.559a3.917 3.917 0 0 1 -4.027-3.725h11.096v-1.469c0-4.02-2.476-7.372-7.303-7.372-4.428 0-7.745 3.352-7.745 8.014s3.283 7.634 7.855 7.634c2.89 0 5.062-1.13 6.269-3.13zm-3.53-8.028c2.24 0 3.282 1.642 3.447 3.352h-7.103c.352-1.848 1.441-3.352 3.655-3.352z" fill="#c7c7c7"/></g></svg>